<?xml version="1.0" encoding="UTF-8" standalone="no"?>
<svg
   width="810"
   viewBox="0 0 810 331.46094"
   height="331.46094"
   version="1.0"
   id="svg37"
   sodipodi:docname="Untitled design.svg"
   inkscape:version="1.1.2 (b8e25be833, 2022-02-05)"
   xmlns:inkscape="http://www.inkscape.org/namespaces/inkscape"
   xmlns:sodipodi="http://sodipodi.sourceforge.net/DTD/sodipodi-0.dtd"
   xmlns:xlink="http://www.w3.org/1999/xlink"
   xmlns="http://www.w3.org/2000/svg"
   xmlns:svg="http://www.w3.org/2000/svg">
  <sodipodi:namedview
     id="namedview39"
     pagecolor="#505050"
     bordercolor="#eeeeee"
     borderopacity="1"
     inkscape:pageshadow="0"
     inkscape:pageopacity="0"
     inkscape:pagecheckerboard="0"
     showgrid="false"
     inkscape:zoom="0.96790123"
     inkscape:cx="416.88138"
     inkscape:cy="165.8227"
     inkscape:window-width="1920"
     inkscape:window-height="956"
     inkscape:window-x="1920"
     inkscape:window-y="27"
     inkscape:window-maximized="1"
     inkscape:current-layer="svg37"
     fit-margin-top="0"
     fit-margin-left="0"
     fit-margin-right="0"
     fit-margin-bottom="0" />
  <defs
     id="defs13">
    <clipPath
       id="c">
      <path
         d="M 0,0 H 362 V 43 H 0 Z"
         id="path2" />
    </clipPath>
    <filter
       x="0"
       y="0"
       width="1"
       xlink:type="simple"
       xlink:actuate="onLoad"
       height="1"
       id="a"
       xlink:show="other">
      <feColorMatrix
         values="0 0 0 0 1 0 0 0 0 1 0 0 0 0 1 0 0 0 1 0"
         color-interpolation-filters="sRGB"
         id="feColorMatrix5" />
    </filter>
    <mask
       id="b">
      <g
         filter="url(#a)"
         id="g10">
        <path
           fill-opacity="0.4"
           d="M -81,-81 H 891 V 891 H -81 Z"
           id="path8" />
      </g>
    </mask>
  </defs>
  <path
     fill="#274c77"
     d="m 502.46484,0 h 17.34766 v 247.62109 h -17.34766 z m 0,0"
     id="path15" />
  <path
     fill="#274c77"
     d="m 290.17969,0 h 17.35547 v 247.62109 h -17.35547 z m 0,0"
     id="path17" />
  <path
     fill="#274c77"
     d="m 497.56641,0 h -70.66797 l 14.57812,20.28906 -14.57812,20.29297 h 70.66797 z m 0,0"
     id="path19" />
  <path
     fill="#274c77"
     d="m 680.69531,165.73047 v 29.79687 c 0,12.66407 -10.36328,23.03516 -23.03515,23.03516 H 152.33594 c -12.66407,0 -23.03516,-10.37109 -23.03516,-23.03516 V 165.73047 H 0 v 89.87109 c 0,12.66406 10.363281,23.03125 23.03125,23.03125 h 27.527344 c 12.660156,0 23.023437,10.40235 23.023437,23.05078 v 6.7461 c 0,12.67968 10.371094,23.03125 23.035157,23.03125 H 594.50781 c 74.55078,0 135.72656,-61.1875 135.72656,-135.78907 H 810 v -29.9375 H 680.69531 Z M 29.910156,195.52734 H 9.652344 v -20.1289 h 20.257812 z m 29.910156,0 H 39.5625 v -20.1289 h 20.257812 z m 29.917969,0 H 69.484375 v -20.1289 h 20.253906 z m 29.910159,0 H 99.390625 v -20.1289 h 20.257815 z m 0,0"
     id="path21" />
  <path
     fill="#274c77"
     d="M 285.29687,0 H 214.625 L 229.19141,20.28906 214.625,40.58203 h 70.67187 z m 0,0"
     id="path23" />
  <path
     fill="#e7ecef"
     d="m 410.42969,59.75391 h 180.74218 c 16.26563,18.78906 26.11719,43.30468 26.11719,70.11718 0,26.81641 -9.85156,51.33203 -26.1289,70.1211 H 410.42969 c 16.26953,-18.78907 26.10547,-43.30469 26.10547,-70.1211 0,-26.79687 -9.83594,-51.32812 -26.10547,-70.11718"
     id="path25" />
  <path
     fill="#e7ecef"
     d="m 198.15625,59.75391 h 180.74609 c 16.26172,18.78906 26.10547,43.30468 26.10547,70.11718 0,26.81641 -9.84375,51.33203 -26.11328,70.1211 H 198.15625 c 16.26172,-18.78907 26.10937,-43.30469 26.10937,-70.1211 -0.004,-26.80859 -9.84765,-51.32812 -26.10937,-70.11718"
     id="path27" />
  <g
     mask="url(#b)"
     id="g35"
     transform="translate(0,-239.34375)">
    <g
       id="g33">
      <g
         clip-path="url(#c)"
         transform="translate(171,493)"
         id="g31">
        <path
           fill="#a3cef1"
           d="m 21.71875,41.339844 c 11.023438,0 19.953125,-8.945313 19.953125,-19.96875 0,-11.039063 -8.929687,-19.96875 -19.953125,-19.96875 -11.015625,0 -19.953125,8.929687 -19.953125,19.96875 0,11.023437 8.9375,19.96875 19.953125,19.96875 m 212.27344,0 c 11.02343,0 19.95312,-8.945313 19.95312,-19.96875 0,-11.039063 -8.92969,-19.96875 -19.95312,-19.96875 -11.01953,0 -19.95313,8.929687 -19.95313,19.96875 0,11.023437 8.9336,19.96875 19.95313,19.96875 z m 106.14062,0 c 11.01953,0 19.96485,-8.945313 19.96485,-19.96875 0,-11.039063 -8.94532,-19.96875 -19.96485,-19.96875 -11.01172,0 -19.95703,8.929687 -19.95703,19.96875 0,11.023437 8.94531,19.96875 19.95703,19.96875 z m -212.26953,0 c 11.01563,0 19.95313,-8.945313 19.95313,-19.96875 0,-11.039063 -8.9375,-19.96875 -19.95313,-19.96875 -11.02734,0 -19.96094,8.929687 -19.96094,19.96875 0,11.023437 8.9336,19.96875 19.96094,19.96875 z m 0,0"
           id="path29" />
      </g>
    </g>
  </g>
</svg>
